<?xml version="1.0" encoding="UTF-8" standalone="no"?>
<svg
   width="1663"
   height="1055"
   xml:space="preserve"
   overflow="hidden"
   version="1.1"
   id="svg92"
   sodipodi:docname="dynamic-progress-estimated.svg"
   inkscape:version="1.1.2 (0a00cf5339, 2022-02-04)"
   xmlns:inkscape="http://www.inkscape.org/namespaces/inkscape"
   xmlns:sodipodi="http://sodipodi.sourceforge.net/DTD/sodipodi-0.dtd"
   xmlns="http://www.w3.org/2000/svg"
   xmlns:svg="http://www.w3.org/2000/svg"><sodipodi:namedview
     id="namedview94"
     pagecolor="#ffffff"
     bordercolor="#666666"
     borderopacity="1.0"
     inkscape:pageshadow="2"
     inkscape:pageopacity="0.0"
     inkscape:pagecheckerboard="0"
     showgrid="false"
     inkscape:zoom="0.68151659"
     inkscape:cx="600.86579"
     inkscape:cy="532.63561"
     inkscape:window-width="2560"
     inkscape:window-height="1373"
     inkscape:window-x="0"
     inkscape:window-y="0"
     inkscape:window-maximized="1"
     inkscape:current-layer="svg92" /><defs
     id="defs8"><clipPath
       id="clip0"><rect
         x="1687"
         y="539"
         width="1663"
         height="1055"
         id="rect2" /></clipPath><clipPath
       id="clip1"><rect
         x="1915"
         y="590"
         width="1339"
         height="801"
         id="rect5" /></clipPath></defs><rect
     x="1"
     y="1"
     width="1660"
     height="1052"
     fill="#ffffff"
     id="rect10" /><g
     id="g14"
     transform="translate(-1687,-539)"><path
       d="m 1915.5,1228.54 h 1335 m -1335,-160 h 1335 m -1335,-159.01 h 1335 m -1335,-160.005 h 1335 M 1915.5,590.5 h 1335"
       stroke="#d9d9d9"
       stroke-width="3.4375"
       stroke-linejoin="round"
       stroke-miterlimit="10"
       fill="none"
       id="path12" /></g><g
     id="g18"
     transform="translate(-1687,-539)"><path
       d="m 2182.57,590.5 v 798 m 267.01,-798 v 798 m 267.01,-798 v 798 m 267.01,-798 v 798 m 266.9,-798 v 798"
       stroke="#d9d9d9"
       stroke-width="3.4375"
       stroke-linejoin="round"
       stroke-miterlimit="10"
       fill="none"
       id="path16" /></g><g
     id="g22"
     transform="translate(-1687,-539)"><path
       d="M 0,0 3.60892e-4,798"
       stroke="#bfbfbf"
       stroke-width="3.4375"
       stroke-linejoin="round"
       stroke-miterlimit="10"
       fill="none"
       fill-rule="evenodd"
       transform="matrix(1,0,0,-1,1915.5,1388.5)"
       id="path20" /></g><g
     id="g26"
     transform="translate(-1687,-539)"><path
       d="m 1915.5,1388.5 h 1335"
       stroke="#bfbfbf"
       stroke-width="3.4375"
       stroke-linejoin="round"
       stroke-miterlimit="10"
       fill="none"
       fill-rule="evenodd"
       id="path24" /></g><g
     clip-path="url(#clip1)"
     id="g30"
     transform="translate(-1687,-539)"><path
       d="m 1915.5,1388.5 0.06,-0.95 v 0 h 1 v 0 l 1,-1 1,-1 2,-1 2,-1 1,-1 2,-1 2,-1 1,-1 2,-1 2,-1 1,-2 2,-1 2,-1 2,-1 1,-1 2,-1 2,-2 2,-1 2,-1.01 2,-1 2,-2 2,-1 3,-1 2,-2 2,-1 3,-2 2,-2 3,-1 3,-2 3,-2 4.01,-2 4,-2 4,-3 4,-3 5,-2 5,-4 6,-3 5,-3 5,-3 6,-3 5,-3 5,-3 6,-3 5,-3 5,-3 6,-3 5,-3 5,-3 6,-3 5,-3 5,-3 6,-3 5,-3 5,-3 6,-3 5,-4 5,-3 6,-3 5,-3 5,-3 6,-3 5,-3 6,-3 5,-3 5,-3 6,-3 5,-3 5,-3 6,-4 5,-3 5,-3 6,-3 5,-3 5,-3 6,-3 5,-3 5,-3 6,-3 5,-3 5,-3 6,-3 5,-3 5,-3 6,-3 5,-3 5,-2 6,-3 5,-3 5.01,-3 6,-3 5,-3 5,-3 6,-3 5,-3 5,-3 6,-3 5,-3 5,-4 6,-3 5,-3 5,-3 6,-3 5,-3 5,-3 6,-3 5,-3 5,-3 6,-3 5,-4 5,-3 6,-3 5,-3 5,-3 6,-3 5,-3 6,-3 5,-4 5,-3 6,-3 5,-3 5,-3 6,-3 5,-3 5,-4 6,-3 5,-3.01 5,-3 6,-3 5,-4 5,-3 6,-3 5,-3 5,-3 6,-4 5,-3 5,-3 6,-4 5,-3 5,-3 6,-3 5,-4 5,-3 6,-3 5,-3.997 5,-3 6.01,-3 5,-4 5,-3 6,-3.001 5,-4 5,-3 6,-3 5,-4 5,-3 6,-4 5,-3 5,-3 6,-4.001 5,-3 5,-3 6,-4 5,-3 5,-4 6,-3 5,-3 5,-4 6,-3.001 5,-4 6,-3 5,-3 5,-4 6,-3 5,-4 5,-3 6,-4 5,-3.001 5,-3 6,-4 5,-3 5,-4 6,-3 5,-4 5,-3 6,-4 5,-3.001 5,-4 h 6 l 4,-3 v 0 0 h 1 v -1 h 1 l 2,-1 3,-2 3,-2 3,-2 3,-2 3,-1 3,-2 3,-2 2,-1 3,-2 3,-2 3,-1.001 2,-2 3,-1 2,-2 3,-1 2,-2 3,-1 2,-2 2,-1 3,-1 2,-2 2,-1 3,-2 2,-1 2,-1 2,-1 2,-2 2,-1 3,-1 2.01,-2 2,-1 2,-1 2,-1.001 2,-1 2,-2 2,-1 2,-1 2,-1 2,-1 2,-2 2,-1 2,-1 2,-1 2,-1 1,-1 2,-1 2,-2 2,-1 2,-1 2,-1 2,-1 2,-1 2,-1 2,-2 2,-1 2,-1 2,-1 2,-1 2,-2 2,-1.001 2,-1 3,-2 2,-1 3,-2 2,-1 2,-2 3,-1 2,-1 2,-1 2,-1 2,-2 2,-1 1,-1 2,-1 2,-1 2,-1 2,-1 1,-1 2,-1 2,-1 2,-1 2,-2 1,-1 2,-1 2,-1.001 2,-1 2,-1 1,-1 2,-1 2,-1 2,-1 2,-1 2,-1 2,-2 1,-1 2,-1 2,-1 2,-1 2,-1 2,-1 2,-2 2,-1 2,-1 2,-1 2,-2 2,-1 2,-1 3,-1 2,-2 2,-1.001 2,-1 3,-2 2,-1 2,-2 3,-1 2,-2 3,-1 3,-2 2,-1 3,-2 3,-2 3,-1 3,-2 3,-2 3,-2 3,-2 3,-1 4,-2 3,-2 3,-2.001 4,-3 3,-2 4,-2 4,-2 3,-2 4,-2 3,-2 4,-3 3,-2 4,-2 3,-2 4,-2 3,-2 3,-2.001 4,-2 3,-2 3,-1 3,-2 3,-2 3,-2 3,-2 3,-1 3,-2 3,-2 3,-2 3,-1 3,-2 3,-2 3.01,-2 3,-2 3,-2.001 4,-2 3,-2 3,-2 4,-2 4,-2 4,-2 4,-3 4,-2 4,-3 5,-3 5,-3 2.89,-1.02"
       stroke="#1f4e79"
       stroke-width="9.16667"
       stroke-linecap="round"
       stroke-linejoin="round"
       stroke-miterlimit="10"
       fill="none"
       id="path28" /></g><g
     id="g34"
     transform="translate(-1687,-539)"><text
       fill="#595959"
       font-family="Calibri, Calibri_MSFontService, sans-serif"
       font-weight="400"
       font-size="41px"
       transform="translate(1856.59,1400)"
       id="text32">0</text></g><g
     id="g38"
     transform="translate(-1687,-539)"><text
       fill="#595959"
       font-family="Calibri, Calibri_MSFontService, sans-serif"
       font-weight="400"
       font-size="41px"
       transform="translate(1835.69,1240)"
       id="text36">20</text></g><g
     id="g42"
     transform="translate(-1687,-539)"><text
       fill="#595959"
       font-family="Calibri, Calibri_MSFontService, sans-serif"
       font-weight="400"
       font-size="41px"
       transform="translate(1835.69,1080)"
       id="text40">40</text></g><g
     id="g46"
     transform="translate(-1687,-539)"><text
       fill="#595959"
       font-family="Calibri, Calibri_MSFontService, sans-serif"
       font-weight="400"
       font-size="41px"
       transform="translate(1835.69,921)"
       id="text44">60</text></g><g
     id="g50"
     transform="translate(-1687,-539)"><text
       fill="#595959"
       font-family="Calibri, Calibri_MSFontService, sans-serif"
       font-weight="400"
       font-size="41px"
       transform="translate(1835.69,761)"
       id="text48">80</text></g><g
     id="g54"
     transform="translate(-1687,-539)"><text
       fill="#595959"
       font-family="Calibri, Calibri_MSFontService, sans-serif"
       font-weight="400"
       font-size="41px"
       transform="translate(1814.79,602)"
       id="text52">100</text></g><g
     id="g58"
     transform="translate(-1687,-539)"><text
       fill="#595959"
       font-family="Calibri, Calibri_MSFontService, sans-serif"
       font-weight="400"
       font-size="41px"
       transform="translate(1905.31,1453)"
       id="text56">0</text></g><g
     id="g62"
     transform="translate(-1687,-539)"><text
       fill="#595959"
       font-family="Calibri, Calibri_MSFontService, sans-serif"
       font-weight="400"
       font-size="41px"
       transform="translate(2135.75,1453)"
       id="text60">0.005</text></g><g
     id="g66"
     transform="translate(-1687,-539)"><text
       fill="#595959"
       font-family="Calibri, Calibri_MSFontService, sans-serif"
       font-weight="400"
       font-size="41px"
       transform="translate(2413.19,1453)"
       id="text64">0.01</text></g><g
     id="g70"
     transform="translate(-1687,-539)"><text
       fill="#595959"
       font-family="Calibri, Calibri_MSFontService, sans-serif"
       font-weight="400"
       font-size="41px"
       transform="translate(2669.73,1453)"
       id="text68">0.015</text></g><g
     id="g74"
     transform="translate(-1687,-539)"><text
       fill="#595959"
       font-family="Calibri, Calibri_MSFontService, sans-serif"
       font-weight="400"
       font-size="41px"
       transform="translate(2947.17,1453)"
       id="text72">0.02</text></g><g
     id="g78"
     transform="translate(-1687,-539)"><text
       fill="#595959"
       font-family="Calibri, Calibri_MSFontService, sans-serif"
       font-weight="400"
       font-size="41px"
       transform="translate(3203.7,1453)"
       id="text76">0.025</text></g><g
     id="g82"
     transform="translate(-1687,-539)"><text
       fill="#595959"
       font-family="Calibri, Calibri_MSFontService, sans-serif"
       font-weight="400"
       font-size="46px"
       transform="rotate(-90,1447.05,-342.05)"
       id="text80">Progress [%]</text></g><g
     id="g86"
     transform="translate(-1687,-539)"><text
       fill="#595959"
       font-family="Calibri, Calibri_MSFontService, sans-serif"
       font-weight="400"
       font-size="46px"
       transform="translate(2508.9,1522)"
       id="text84">Time [s]</text></g><path
     style="fill:#000000;stroke:#9b9797;stroke-width:8.06000042;stroke-miterlimit:4;stroke-dasharray:16.12000084, 8.06000042;stroke-dashoffset:0;stroke-opacity:1"
     d="M 1116.7747,848.11547 V 317.79572"
     id="path3472-3" /><path
     style="fill:#000000;stroke:#999999;stroke-width:8.093;stroke-miterlimit:4;stroke-dasharray:24.279, 8.093;stroke-dashoffset:0;stroke-opacity:1"
     d="M 1121.59,317.528 H 230.37038"
     id="path3472-3-6"
     sodipodi:nodetypes="cc" /></svg>
