<?xml version="1.0" encoding="UTF-8"?>
<!DOCTYPE svg PUBLIC "-//W3C//DTD SVG 1.1//EN" "http://www.w3.org/Graphics/SVG/1.1/DTD/svg11.dtd">
<svg width="194mm" height="83mm" viewBox="0 0 19400 8300" version="1.1" xmlns="http://www.w3.org/2000/svg" xmlns:xlink="http://www.w3.org/1999/xlink" stroke-width="28.222" stroke-linejoin="round" xml:space="preserve">
 <path fill="rgb(255,255,255)" stroke="none" d="M 9666,8274 L -13,8274 -13,-13 19344,-13 19344,8274 9666,8274 Z"/>
 <path fill="none" stroke="rgb(179,179,179)" stroke-linejoin="round" d="M 10990,6481 L 3118,6481 3118,351 18863,351 18863,6481 10990,6481 Z"/>
 <path fill="none" stroke="rgb(179,179,179)" stroke-linejoin="round" d="M 3118,350 L 3118,6480"/>
 <path fill="none" stroke="rgb(179,179,179)" stroke-linejoin="round" d="M 5742,350 L 5742,6480"/>
 <path fill="none" stroke="rgb(179,179,179)" stroke-linejoin="round" d="M 8366,350 L 8366,6480"/>
 <path fill="none" stroke="rgb(179,179,179)" stroke-linejoin="round" d="M 10990,350 L 10990,6480"/>
 <path fill="none" stroke="rgb(179,179,179)" stroke-linejoin="round" d="M 13614,350 L 13614,6480"/>
 <path fill="none" stroke="rgb(179,179,179)" stroke-linejoin="round" d="M 16238,350 L 16238,6480"/>
 <path fill="none" stroke="rgb(179,179,179)" stroke-linejoin="round" d="M 18863,350 L 18863,6480"/>
 <path fill="none" stroke="rgb(179,179,179)" stroke-linejoin="round" d="M 18863,6480 L 3118,6480"/>
 <path fill="none" stroke="rgb(179,179,179)" stroke-linejoin="round" d="M 18863,5866 L 3118,5866"/>
 <path fill="none" stroke="rgb(179,179,179)" stroke-linejoin="round" d="M 18863,5253 L 3118,5253"/>
 <path fill="none" stroke="rgb(179,179,179)" stroke-linejoin="round" d="M 18863,4640 L 3118,4640"/>
 <path fill="none" stroke="rgb(179,179,179)" stroke-linejoin="round" d="M 18863,4028 L 3118,4028"/>
 <path fill="none" stroke="rgb(179,179,179)" stroke-linejoin="round" d="M 18863,3415 L 3118,3415"/>
 <path fill="none" stroke="rgb(179,179,179)" stroke-linejoin="round" d="M 18863,2802 L 3118,2802"/>
 <path fill="none" stroke="rgb(179,179,179)" stroke-linejoin="round" d="M 18863,2189 L 3118,2189"/>
 <path fill="none" stroke="rgb(179,179,179)" stroke-linejoin="round" d="M 18863,1576 L 3118,1576"/>
 <path fill="none" stroke="rgb(179,179,179)" stroke-linejoin="round" d="M 18863,963 L 3118,963"/>
 <path fill="none" stroke="rgb(179,179,179)" stroke-linejoin="round" d="M 18863,350 L 3118,350"/>
 <path fill="none" stroke="rgb(179,179,179)" stroke-linejoin="round" d="M 3118,6630 L 3118,6480"/>
 <path fill="none" stroke="rgb(179,179,179)" stroke-linejoin="round" d="M 3118,6630 L 3118,6480"/>
 <path fill="none" stroke="rgb(179,179,179)" stroke-linejoin="round" d="M 5742,6630 L 5742,6480"/>
 <path fill="none" stroke="rgb(179,179,179)" stroke-linejoin="round" d="M 5742,6630 L 5742,6480"/>
 <path fill="none" stroke="rgb(179,179,179)" stroke-linejoin="round" d="M 8366,6630 L 8366,6480"/>
 <path fill="none" stroke="rgb(179,179,179)" stroke-linejoin="round" d="M 8366,6630 L 8366,6480"/>
 <path fill="none" stroke="rgb(179,179,179)" stroke-linejoin="round" d="M 10990,6630 L 10990,6480"/>
 <path fill="none" stroke="rgb(179,179,179)" stroke-linejoin="round" d="M 10990,6630 L 10990,6480"/>
 <path fill="none" stroke="rgb(179,179,179)" stroke-linejoin="round" d="M 13614,6630 L 13614,6480"/>
 <path fill="none" stroke="rgb(179,179,179)" stroke-linejoin="round" d="M 13614,6630 L 13614,6480"/>
 <path fill="none" stroke="rgb(179,179,179)" stroke-linejoin="round" d="M 16238,6630 L 16238,6480"/>
 <path fill="none" stroke="rgb(179,179,179)" stroke-linejoin="round" d="M 16238,6630 L 16238,6480"/>
 <path fill="none" stroke="rgb(179,179,179)" stroke-linejoin="round" d="M 18863,6630 L 18863,6480"/>
 <path fill="none" stroke="rgb(179,179,179)" stroke-linejoin="round" d="M 18863,6630 L 18863,6480"/>
 <path fill="none" stroke="rgb(179,179,179)" stroke-linejoin="round" d="M 3118,6480 L 18863,6480"/>
 <path fill="none" stroke="rgb(179,179,179)" stroke-linejoin="round" d="M 2968,6480 L 3118,6480"/>
 <path fill="none" stroke="rgb(179,179,179)" stroke-linejoin="round" d="M 2968,6480 L 3118,6480"/>
 <path fill="none" stroke="rgb(179,179,179)" stroke-linejoin="round" d="M 2968,5866 L 3118,5866"/>
 <path fill="none" stroke="rgb(179,179,179)" stroke-linejoin="round" d="M 2968,5866 L 3118,5866"/>
 <path fill="none" stroke="rgb(179,179,179)" stroke-linejoin="round" d="M 2968,5253 L 3118,5253"/>
 <path fill="none" stroke="rgb(179,179,179)" stroke-linejoin="round" d="M 2968,5253 L 3118,5253"/>
 <path fill="none" stroke="rgb(179,179,179)" stroke-linejoin="round" d="M 2968,4640 L 3118,4640"/>
 <path fill="none" stroke="rgb(179,179,179)" stroke-linejoin="round" d="M 2968,4640 L 3118,4640"/>
 <path fill="none" stroke="rgb(179,179,179)" stroke-linejoin="round" d="M 2968,4028 L 3118,4028"/>
 <path fill="none" stroke="rgb(179,179,179)" stroke-linejoin="round" d="M 2968,4028 L 3118,4028"/>
 <path fill="none" stroke="rgb(179,179,179)" stroke-linejoin="round" d="M 2968,3415 L 3118,3415"/>
 <path fill="none" stroke="rgb(179,179,179)" stroke-linejoin="round" d="M 2968,3415 L 3118,3415"/>
 <path fill="none" stroke="rgb(179,179,179)" stroke-linejoin="round" d="M 2968,2802 L 3118,2802"/>
 <path fill="none" stroke="rgb(179,179,179)" stroke-linejoin="round" d="M 2968,2802 L 3118,2802"/>
 <path fill="none" stroke="rgb(179,179,179)" stroke-linejoin="round" d="M 2968,2189 L 3118,2189"/>
 <path fill="none" stroke="rgb(179,179,179)" stroke-linejoin="round" d="M 2968,2189 L 3118,2189"/>
 <path fill="none" stroke="rgb(179,179,179)" stroke-linejoin="round" d="M 2968,1576 L 3118,1576"/>
 <path fill="none" stroke="rgb(179,179,179)" stroke-linejoin="round" d="M 2968,1576 L 3118,1576"/>
 <path fill="none" stroke="rgb(179,179,179)" stroke-linejoin="round" d="M 2968,963 L 3118,963"/>
 <path fill="none" stroke="rgb(179,179,179)" stroke-linejoin="round" d="M 2968,963 L 3118,963"/>
 <path fill="none" stroke="rgb(179,179,179)" stroke-linejoin="round" d="M 2968,350 L 3118,350"/>
 <path fill="none" stroke="rgb(179,179,179)" stroke-linejoin="round" d="M 2968,350 L 3118,350"/>
 <path fill="none" stroke="rgb(179,179,179)" stroke-linejoin="round" d="M 3118,6480 L 3118,350"/>
 <path fill="none" stroke="rgb(0,69,134)" stroke-width="76" stroke-linejoin="round" stroke-dasharray="228,76" d="M 3118,2773 L 5742,352 8366,2526 10990,1216 13614,3823 16238,2712 18863,6259"/>
 <path fill="rgb(0,69,134)" stroke="none" d="M 3018,2673 L 3018,2873 3218,2873 3218,2673 3018,2673 Z"/>
 <path fill="none" stroke="rgb(0,69,134)" stroke-linejoin="round" d="M 3018,2673 L 3018,2873 3218,2873 3218,2673 3018,2673 Z"/>
 <path fill="rgb(0,69,134)" stroke="none" d="M 5642,252 L 5642,452 5842,452 5842,252 5642,252 Z"/>
 <path fill="none" stroke="rgb(0,69,134)" stroke-linejoin="round" d="M 5642,252 L 5642,452 5842,452 5842,252 5642,252 Z"/>
 <path fill="rgb(0,69,134)" stroke="none" d="M 8266,2426 L 8266,2626 8466,2626 8466,2426 8266,2426 Z"/>
 <path fill="none" stroke="rgb(0,69,134)" stroke-linejoin="round" d="M 8266,2426 L 8266,2626 8466,2626 8466,2426 8266,2426 Z"/>
 <path fill="rgb(0,69,134)" stroke="none" d="M 10890,1116 L 10890,1316 11090,1316 11090,1116 10890,1116 Z"/>
 <path fill="none" stroke="rgb(0,69,134)" stroke-linejoin="round" d="M 10890,1116 L 10890,1316 11090,1316 11090,1116 10890,1116 Z"/>
 <path fill="rgb(0,69,134)" stroke="none" d="M 13514,3723 L 13514,3923 13714,3923 13714,3723 13514,3723 Z"/>
 <path fill="none" stroke="rgb(0,69,134)" stroke-linejoin="round" d="M 13514,3723 L 13514,3923 13714,3923 13714,3723 13514,3723 Z"/>
 <path fill="rgb(0,69,134)" stroke="none" d="M 16138,2612 L 16138,2812 16338,2812 16338,2612 16138,2612 Z"/>
 <path fill="none" stroke="rgb(0,69,134)" stroke-linejoin="round" d="M 16138,2612 L 16138,2812 16338,2812 16338,2612 16138,2612 Z"/>
 <path fill="rgb(0,69,134)" stroke="none" d="M 18763,6159 L 18763,6359 18963,6359 18963,6159 18763,6159 Z"/>
 <path fill="none" stroke="rgb(0,69,134)" stroke-linejoin="round" d="M 18763,6159 L 18763,6359 18963,6359 18963,6159 18763,6159 Z"/>
 <text class="SVGTextShape"><tspan class="TextParagraph" font-family="Liberation Sans, sans-serif" font-size="353px" font-weight="400"><tspan class="TextPosition" x="3025" y="7048"><tspan fill="rgb(0,0,0)" stroke="none" style="white-space: pre">0</tspan></tspan></tspan></text>
 <text class="SVGTextShape"><tspan class="TextParagraph" font-family="Liberation Sans, sans-serif" font-size="353px" font-weight="400"><tspan class="TextPosition" x="5649" y="7048"><tspan fill="rgb(0,0,0)" stroke="none" style="white-space: pre">1</tspan></tspan></tspan></text>
 <text class="SVGTextShape"><tspan class="TextParagraph" font-family="Liberation Sans, sans-serif" font-size="353px" font-weight="400"><tspan class="TextPosition" x="8273" y="7048"><tspan fill="rgb(0,0,0)" stroke="none" style="white-space: pre">2</tspan></tspan></tspan></text>
 <text class="SVGTextShape"><tspan class="TextParagraph" font-family="Liberation Sans, sans-serif" font-size="353px" font-weight="400"><tspan class="TextPosition" x="10898" y="7048"><tspan fill="rgb(0,0,0)" stroke="none" style="white-space: pre">3</tspan></tspan></tspan></text>
 <text class="SVGTextShape"><tspan class="TextParagraph" font-family="Liberation Sans, sans-serif" font-size="353px" font-weight="400"><tspan class="TextPosition" x="13522" y="7048"><tspan fill="rgb(0,0,0)" stroke="none" style="white-space: pre">4</tspan></tspan></tspan></text>
 <text class="SVGTextShape"><tspan class="TextParagraph" font-family="Liberation Sans, sans-serif" font-size="353px" font-weight="400"><tspan class="TextPosition" x="16146" y="7048"><tspan fill="rgb(0,0,0)" stroke="none" style="white-space: pre">5</tspan></tspan></tspan></text>
 <text class="SVGTextShape"><tspan class="TextParagraph" font-family="Liberation Sans, sans-serif" font-size="353px" font-weight="400"><tspan class="TextPosition" x="18771" y="7048"><tspan fill="rgb(0,0,0)" stroke="none" style="white-space: pre">6</tspan></tspan></tspan></text>
 <text class="SVGTextShape"><tspan class="TextParagraph" font-family="Liberation Sans, sans-serif" font-size="353px" font-weight="400"><tspan class="TextPosition" x="1492" y="6601"><tspan fill="rgb(0,0,0)" stroke="none" style="white-space: pre">1.00E-02</tspan></tspan></tspan></text>
 <text class="SVGTextShape"><tspan class="TextParagraph" font-family="Liberation Sans, sans-serif" font-size="353px" font-weight="400"><tspan class="TextPosition" x="1492" y="5987"><tspan fill="rgb(0,0,0)" stroke="none" style="white-space: pre">1.00E-01</tspan></tspan></tspan></text>
 <text class="SVGTextShape"><tspan class="TextParagraph" font-family="Liberation Sans, sans-serif" font-size="353px" font-weight="400"><tspan class="TextPosition" x="1386" y="5374"><tspan fill="rgb(0,0,0)" stroke="none" style="white-space: pre">1.00E+00</tspan></tspan></tspan></text>
 <text class="SVGTextShape"><tspan class="TextParagraph" font-family="Liberation Sans, sans-serif" font-size="353px" font-weight="400"><tspan class="TextPosition" x="1386" y="4761"><tspan fill="rgb(0,0,0)" stroke="none" style="white-space: pre">1.00E+01</tspan></tspan></tspan></text>
 <text class="SVGTextShape"><tspan class="TextParagraph" font-family="Liberation Sans, sans-serif" font-size="353px" font-weight="400"><tspan class="TextPosition" x="1386" y="4148"><tspan fill="rgb(0,0,0)" stroke="none" style="white-space: pre">1.00E+02</tspan></tspan></tspan></text>
 <text class="SVGTextShape"><tspan class="TextParagraph" font-family="Liberation Sans, sans-serif" font-size="353px" font-weight="400"><tspan class="TextPosition" x="1386" y="3535"><tspan fill="rgb(0,0,0)" stroke="none" style="white-space: pre">1.00E+03</tspan></tspan></tspan></text>
 <text class="SVGTextShape"><tspan class="TextParagraph" font-family="Liberation Sans, sans-serif" font-size="353px" font-weight="400"><tspan class="TextPosition" x="1386" y="2922"><tspan fill="rgb(0,0,0)" stroke="none" style="white-space: pre">1.00E+04</tspan></tspan></tspan></text>
 <text class="SVGTextShape"><tspan class="TextParagraph" font-family="Liberation Sans, sans-serif" font-size="353px" font-weight="400"><tspan class="TextPosition" x="1386" y="2309"><tspan fill="rgb(0,0,0)" stroke="none" style="white-space: pre">1.00E+05</tspan></tspan></tspan></text>
 <text class="SVGTextShape"><tspan class="TextParagraph" font-family="Liberation Sans, sans-serif" font-size="353px" font-weight="400"><tspan class="TextPosition" x="1386" y="1696"><tspan fill="rgb(0,0,0)" stroke="none" style="white-space: pre">1.00E+06</tspan></tspan></tspan></text>
 <text class="SVGTextShape"><tspan class="TextParagraph" font-family="Liberation Sans, sans-serif" font-size="353px" font-weight="400"><tspan class="TextPosition" x="1386" y="1083"><tspan fill="rgb(0,0,0)" stroke="none" style="white-space: pre">1.00E+07</tspan></tspan></tspan></text>
 <text class="SVGTextShape"><tspan class="TextParagraph" font-family="Liberation Sans, sans-serif" font-size="353px" font-weight="400"><tspan class="TextPosition" x="1386" y="470"><tspan fill="rgb(0,0,0)" stroke="none" style="white-space: pre">1.00E+08</tspan></tspan></tspan></text>
 <text class="SVGTextShape"><tspan class="TextParagraph" font-family="Liberation Sans, sans-serif" font-size="318px" font-weight="400"><tspan class="TextPosition" x="9589" y="7680"><tspan fill="rgb(0,0,0)" stroke="none" style="white-space: pre">Iteration</tspan></tspan></tspan></text>
 <text class="SVGTextShape" transform="rotate(-90 824 5134)"><tspan class="TextParagraph" font-family="Liberation Sans, sans-serif" font-size="318px" font-weight="400"><tspan class="TextPosition" x="824" y="5134"><tspan fill="rgb(0,0,0)" stroke="none" style="white-space: pre">Error (residual norm)</tspan></tspan></tspan></text>
</svg>